<svg xmlns="http://www.w3.org/2000/svg" xmlns:xlink="http://www.w3.org/1999/xlink" width="48" height="50.424" viewBox="0 0 48 50.424">
  <defs>
    <clipPath id="clip-path">
      <rect id="Rectangle_238" data-name="Rectangle 238" width="48" height="50.424" fill="#fff"/>
    </clipPath>
  </defs>
  <g id="ex-icon-1" clip-path="url(#clip-path)">
    <path id="Path_19" data-name="Path 19" d="M24.7,22.156h.455L21.614,32.993a.97.97,0,1,0,1.843.6l3.734-11.439h8.544l3.733,11.439a.97.97,0,0,0,1.844-.6L37.775,22.156h.455a.97.97,0,0,0,0-1.939H37.143L34.625,12.5a4.885,4.885,0,0,0-2.192-8.516V.97a.97.97,0,1,0-1.939,0V3.987A4.885,4.885,0,0,0,28.3,12.5l-2.517,7.713H24.7a.97.97,0,0,0,0,1.939M31.463,5.829a2.95,2.95,0,1,1-2.95,2.95,2.954,2.954,0,0,1,2.95-2.95m-1.432,7.625a4.882,4.882,0,0,0,2.864,0L35.1,20.216H27.824Z" transform="translate(-14.046 0)" fill="#fff"/>
    <path id="Path_20" data-name="Path 20" d="M42.928,20.52H26.16a.97.97,0,0,0,0,1.939H42.928a3.136,3.136,0,0,1,3.132,3.132V58.717a3.136,3.136,0,0,1-3.132,3.133H5.072a3.137,3.137,0,0,1-3.133-3.133V25.592a3.136,3.136,0,0,1,3.133-3.132h3.6a.97.97,0,0,0,0-1.939h-3.6A5.078,5.078,0,0,0,0,25.592V58.717A5.078,5.078,0,0,0,5.072,63.79H42.928A5.078,5.078,0,0,0,48,58.717V25.592a5.078,5.078,0,0,0-5.072-5.072" transform="translate(0 -13.365)" fill="#fff"/>
    <path id="Path_21" data-name="Path 21" d="M39.016,111.953a.97.97,0,0,0-1.939,0v1.3H31.261v-1.3a.97.97,0,0,0-1.939,0v1.3H23.505v-1.3a.97.97,0,1,0-1.939,0v2.269a.97.97,0,0,0,.97.97H53.557a.97.97,0,0,0,.97-.97v-2.269a.97.97,0,1,0-1.939,0v1.3H46.772v-1.3a.97.97,0,1,0-1.939,0v1.3H39.016Z" transform="translate(-14.046 -72.286)" fill="#fff"/>
    <path id="Path_22" data-name="Path 22" d="M86.467,41.1H79.453a.97.97,0,1,0,0,1.939H85.5v4.918a.97.97,0,0,0,.97.97h3.192V58.946h-4.14a.97.97,0,0,0,0,1.939h5.11a.969.969,0,0,0,.97-.97V47.952a.97.97,0,0,0-.97-.97H87.437V42.065a.97.97,0,0,0-.969-.97" transform="translate(-51.118 -26.766)" fill="#fff"/>
  </g>
</svg>
